<?xml version="1.0" standalone="no"?>
<!DOCTYPE svg PUBLIC "-//W3C//DTD SVG 20010904//EN"
 "http://www.w3.org/TR/2001/REC-SVG-20010904/DTD/svg10.dtd">
<svg version="1.0" xmlns="http://www.w3.org/2000/svg"
 width="300.000000pt" height="300.000000pt" viewBox="0 0 300.000000 300.000000"
 preserveAspectRatio="xMidYMid meet">
<metadata>
Created by potrace 1.14, written by Peter Selinger 2001-2017
</metadata>
<g transform="translate(0.000000,300.000000) scale(0.100000,-0.100000)"
fill="#000000" stroke="none">
<path d="M1349 2996 c-2 -2 -24 -6 -49 -9 -498 -63 -952 -402 -1164 -870 -32
-70 -73 -183 -80 -223 -2 -10 -9 -37 -14 -59 -6 -22 -13 -58 -17 -80 -3 -23
-8 -52 -11 -65 -11 -53 -10 -297 2 -384 77 -547 418 -987 929 -1199 73 -30
187 -66 235 -73 19 -3 37 -7 40 -9 30 -18 388 -27 498 -13 73 10 236 52 313
81 212 80 426 225 578 391 69 75 82 92 146 187 147 220 234 476 240 709 1 58
1 83 -1 55 -9 -118 -28 -235 -50 -315 -9 -30 -18 -62 -19 -70 -8 -35 -46 -130
-80 -200 -208 -425 -621 -736 -1085 -816 -113 -19 -337 -25 -450 -11 -84 11
-239 49 -322 80 -139 53 -324 159 -428 246 l-35 29 50 -9 c28 -5 84 -9 125 -8
70 2 79 0 136 -35 119 -72 322 -143 464 -163 71 -10 338 -10 410 0 30 4 96 19
147 32 396 108 724 391 886 765 30 68 71 194 81 245 4 17 9 41 12 55 17 83 23
289 11 395 -31 279 -159 557 -347 758 -33 36 -60 74 -60 85 0 29 -49 180 -60
187 -6 3 -10 11 -10 16 0 6 19 -4 43 -23 264 -208 447 -483 530 -799 28 -106
34 -141 43 -254 9 -113 17 -109 11 5 -18 327 -176 672 -425 924 -209 214 -482
360 -787 422 -71 14 -424 31 -436 20z m436 -34 c134 -27 261 -70 379 -128 l96
-48 -44 -17 c-24 -9 -58 -26 -74 -38 l-30 -21 -80 34 c-182 78 -347 108 -565
102 -156 -4 -163 -5 -282 -33 -156 -37 -328 -115 -465 -211 -36 -26 -117 -97
-180 -160 -63 -63 -131 -122 -151 -132 -64 -33 -113 -121 -118 -212 -1 -26
-15 -81 -31 -122 -162 -421 -91 -923 181 -1282 l49 -65 -16 -37 c-8 -20 -15
-56 -16 -79 0 -37 -2 -41 -16 -31 -9 6 -37 36 -62 66 -230 285 -344 604 -342
962 0 111 4 144 28 279 42 229 161 482 312 659 264 310 593 485 1007 535 80
10 326 -3 420 -21z"/>
<path d="M2991 1514 c0 -11 3 -14 6 -6 3 7 2 16 -1 19 -3 4 -6 -2 -5 -13z"/>
</g>
</svg>
